<svg width="38" height="38" viewBox="0 0 38 38" fill="none" xmlns="http://www.w3.org/2000/svg">
    <circle cx="19" cy="19" r="18" fill="#313D49" stroke="#4A5A6A" stroke-width="2"/>
    <g clip-path="url(#clip0_4550_226363)">
        <path fill-rule="evenodd" clip-rule="evenodd" d="M19.7191 12.5169C19.7191 12.1192 19.3967 11.7969 18.9991 11.7969C18.6015 11.7969 18.2791 12.1192 18.2791 12.5169V18.2771H12.5198C12.1222 18.2771 11.7998 18.5994 11.7998 18.9971C11.7998 19.3947 12.1222 19.7171 12.5198 19.7171H18.2791V25.4769C18.2791 25.8745 18.6015 26.1969 18.9991 26.1969C19.3967 26.1969 19.7191 25.8745 19.7191 25.4769V19.7171H25.4798C25.8774 19.7171 26.1998 19.3947 26.1998 18.9971C26.1998 18.5994 25.8774 18.2771 25.4798 18.2771H19.7191V12.5169Z" fill="white"/>
    </g>
    <defs>
        <clipPath id="clip0_4550_226363">
            <rect width="14.4" height="14.4" fill="white" transform="translate(11.7998 11.7969)"/>
        </clipPath>
    </defs>
</svg>

