<svg width="12" height="12" viewBox="0 0 12 12" fill="none" xmlns="http://www.w3.org/2000/svg">
    <path d="M1.33883 6.19945L1.75117 5.78697L6.78961 0.748665C7.78783 -0.249555 9.41214 -0.249555 10.4104 0.748665C11.3768 1.71511 11.4049 3.26637 10.5007 4.26999C10.4868 4.2878 10.4743 4.30613 10.4581 4.32221L6.16641 8.61416C5.48665 9.29353 4.38083 9.29366 3.70119 8.61416C3.02129 7.93426 3.02129 6.82831 3.7008 6.14868L6.15744 3.69216C6.3948 3.45467 6.77998 3.4548 7.01734 3.69216C7.25496 3.92952 7.25509 4.31443 7.01734 4.55205L4.56082 7.00857C4.35511 7.21441 4.35511 7.54895 4.56095 7.7544C4.76679 7.96024 5.10134 7.96024 5.30678 7.7544L9.551 3.50992C10.0753 2.98549 10.0752 2.13272 9.551 1.60816C9.02644 1.084 8.1738 1.084 7.6495 1.60816L2.61119 6.64673L2.19859 7.05908C1.34753 7.91013 1.34753 9.29511 2.19859 10.146C3.04951 10.9971 4.43436 10.9971 5.28555 10.146L10.6165 4.81552C10.8538 4.57816 11.2387 4.57803 11.4762 4.81552C11.7137 5.05288 11.7136 5.43792 11.4762 5.67541L6.14545 11.0061C4.8202 12.3313 2.66407 12.3316 1.33883 11.0065C0.0134478 9.68095 0.0135794 7.52456 1.33883 6.19945Z" fill="#8296AA"/>
</svg>
