<svg width="26" height="26" viewBox="0 0 26 26" fill="none" xmlns="http://www.w3.org/2000/svg">
    <path d="M1 9C1 4.58172 4.58172 1 9 1H17C21.4183 1 25 4.58172 25 9V17C25 21.4183 21.4183 25 17 25H9C4.58172 25 1 21.4183 1 17V9Z" fill="#010203" fill-opacity="0.2"/>
    <path d="M13.0048 17.1193C12.3713 17.1193 11.8088 17.0128 11.3173 16.7997C10.8287 16.5866 10.4451 16.2955 10.1667 15.9261C9.89116 15.554 9.75479 15.1321 9.75763 14.6605C9.75479 14.294 9.83434 13.9574 9.99627 13.6506C10.1582 13.3438 10.377 13.0881 10.6525 12.8835C10.9309 12.6761 11.2406 12.544 11.5815 12.4872V12.4276C11.1326 12.3281 10.769 12.0994 10.4906 11.7415C10.215 11.3807 10.0787 10.9645 10.0815 10.4929C10.0787 10.044 10.2037 9.64347 10.4565 9.29119C10.7093 8.93892 11.0559 8.66193 11.4963 8.46023C11.9366 8.25568 12.4395 8.15341 13.0048 8.15341C13.5645 8.15341 14.063 8.25568 14.5005 8.46023C14.9409 8.66193 15.2875 8.93892 15.5403 9.29119C15.796 9.64347 15.9238 10.044 15.9238 10.4929C15.9238 10.9645 15.7832 11.3807 15.502 11.7415C15.2235 12.0994 14.8642 12.3281 14.4238 12.4276V12.4872C14.7647 12.544 15.0716 12.6761 15.3443 12.8835C15.6199 13.0881 15.8386 13.3438 16.0005 13.6506C16.1653 13.9574 16.2477 14.294 16.2477 14.6605C16.2477 15.1321 16.1085 15.554 15.8301 15.9261C15.5517 16.2955 15.1681 16.5866 14.6795 16.7997C14.1937 17.0128 13.6355 17.1193 13.0048 17.1193ZM13.0048 15.9006C13.3315 15.9006 13.6156 15.8452 13.8571 15.7344C14.0985 15.6207 14.286 15.4616 14.4196 15.2571C14.5531 15.0526 14.6213 14.8168 14.6241 14.5497C14.6213 14.2713 14.5488 14.0256 14.4068 13.8125C14.2676 13.5966 14.0758 13.4276 13.8315 13.3054C13.59 13.1832 13.3145 13.1222 13.0048 13.1222C12.6923 13.1222 12.4139 13.1832 12.1696 13.3054C11.9252 13.4276 11.7321 13.5966 11.59 13.8125C11.4508 14.0256 11.3826 14.2713 11.3855 14.5497C11.3826 14.8168 11.448 15.0526 11.5815 15.2571C11.715 15.4588 11.9025 15.6165 12.144 15.7301C12.3883 15.8437 12.6752 15.9006 13.0048 15.9006ZM13.0048 11.9247C13.2718 11.9247 13.5076 11.8707 13.7122 11.7628C13.9196 11.6548 14.0829 11.5043 14.2022 11.3111C14.3216 11.1179 14.3826 10.8949 14.3855 10.642C14.3826 10.392 14.323 10.1733 14.2065 9.9858C14.09 9.79545 13.9281 9.64915 13.7207 9.54688C13.5133 9.44176 13.2747 9.3892 13.0048 9.3892C12.7292 9.3892 12.4863 9.44176 12.2761 9.54688C12.0687 9.64915 11.9068 9.79545 11.7903 9.9858C11.6767 10.1733 11.6213 10.392 11.6241 10.642C11.6213 10.8949 11.6781 11.1179 11.7946 11.3111C11.9139 11.5014 12.0772 11.652 12.2846 11.7628C12.4949 11.8707 12.7349 11.9247 13.0048 11.9247Z" fill="white"/>
    <path d="M9 2H17V0H9V2ZM24 9V17H26V9H24ZM17 24H9V26H17V24ZM2 17V9H0V17H2ZM9 24C5.13401 24 2 20.866 2 17H0C0 21.9706 4.02944 26 9 26V24ZM24 17C24 20.866 20.866 24 17 24V26C21.9706 26 26 21.9706 26 17H24ZM17 2C20.866 2 24 5.13401 24 9H26C26 4.02944 21.9706 0 17 0V2ZM9 0C4.02944 0 0 4.02944 0 9H2C2 5.13401 5.13401 2 9 2V0Z" fill="white" fill-opacity="0.15"/>
</svg>
