<svg width="10" height="12" viewBox="0 0 10 12" fill="none" xmlns="http://www.w3.org/2000/svg">
    <path fill-rule="evenodd" clip-rule="evenodd" d="M8.5 5C8.5 2.97041 7.3808 1.56175 5.93269 1.13885C5.88026 1.00318 5.79739 0.87705 5.68474 0.771215C5.29986 0.409595 4.70014 0.409595 4.31526 0.771215C4.20286 0.876818 4.12011 1.00263 4.06765 1.13796C2.61768 1.55901 1.5 2.9646 1.5 5C1.5 6.31695 1.23449 7.05488 0.742979 7.58966C0.660805 7.67907 0.43817 7.88388 0.28735 8.02262L0.287326 8.02264C0.215972 8.08828 0.160697 8.13913 0.143982 8.15597L0 8.30198V10.007H3.04399C3.14692 10.5381 3.43505 10.8933 3.9561 11.2113C4.59707 11.6024 5.40293 11.6024 6.0439 11.2113C6.50374 10.9307 6.81207 10.4994 6.93716 10.007H10V8.30198L9.85602 8.15597C9.84086 8.1406 9.78784 8.09169 9.71852 8.02775C9.56816 7.88904 9.34113 7.67961 9.25769 7.58847C8.76585 7.0512 8.5 6.31232 8.5 5ZM5.86836 10.007H4.08931C4.15995 10.1385 4.28035 10.2377 4.47701 10.3577C4.79813 10.5537 5.20187 10.5537 5.52299 10.3577C5.6717 10.2669 5.78789 10.1469 5.86836 10.007ZM8.52009 8.2637C8.6253 8.37864 8.85081 8.58872 9 8.72596V9.00704H1V8.72618C1.14804 8.59055 1.37422 8.38063 1.47924 8.26636C2.14711 7.5397 2.5 6.5589 2.5 5C2.5 3.10995 3.66638 2.00619 5 2.00619C6.32985 2.00619 7.5 3.11564 7.5 5C7.5 6.5539 7.853 7.535 8.52009 8.2637Z" fill="#8296AA"/>
</svg>
