<svg width="12" height="12" viewBox="0 0 12 12" fill="none" xmlns="http://www.w3.org/2000/svg">
    <path fill-rule="evenodd" clip-rule="evenodd" d="M3 0C3.33137 0 3.6 0.268629 3.6 0.6V1.2H8.4V0.6C8.4 0.268629 8.66863 0 9 0C9.33137 0 9.6 0.268629 9.6 0.6V1.2H10.2C10.6774 1.2 11.1352 1.38964 11.4728 1.72721C11.8104 2.06477 12 2.52261 12 3V10.2C12 10.6774 11.8104 11.1352 11.4728 11.4728C11.1352 11.8104 10.6774 12 10.2 12H1.8C1.32261 12 0.864773 11.8104 0.527208 11.4728C0.189642 11.1352 0 10.6774 0 10.2V3C0 2.52261 0.189642 2.06477 0.527208 1.72721C0.864773 1.38964 1.32261 1.2 1.8 1.2H2.4V0.6C2.4 0.268629 2.66863 0 3 0ZM1.8 2.4C1.64087 2.4 1.48826 2.46321 1.37574 2.57574C1.26321 2.68826 1.2 2.84087 1.2 3V4.2H10.8V3C10.8 2.84087 10.7368 2.68826 10.6243 2.57574C10.5117 2.46321 10.3591 2.4 10.2 2.4H1.8ZM10.8 5.4H1.2V10.2C1.2 10.3591 1.26321 10.5117 1.37574 10.6243C1.48826 10.7368 1.64087 10.8 1.8 10.8H10.2C10.3591 10.8 10.5117 10.7368 10.6243 10.6243C10.7368 10.5117 10.8 10.3591 10.8 10.2V5.4Z" fill="white"/>
</svg>
