<svg width="12" height="12" viewBox="0 0 12 12" fill="none" xmlns="http://www.w3.org/2000/svg">
    <g clip-path="url(#clip0_517_97991)">
        <path fill-rule="evenodd" clip-rule="evenodd" d="M1.19922 9.29999C1.19922 9.12697 1.27391 8.96238 1.40412 8.84845L3.80412 6.74845C4.0535 6.53024 4.43256 6.55551 4.65076 6.80489C4.86897 7.05427 4.8437 7.43333 4.59432 7.65154L2.71037 9.29999L4.59432 10.9484C4.8437 11.1667 4.86897 11.5457 4.65076 11.7951C4.43256 12.0445 4.0535 12.0697 3.80412 11.8515L1.40412 9.75154C1.27391 9.6376 1.19922 9.47301 1.19922 9.29999Z" fill="#8296AA"/>
        <path fill-rule="evenodd" clip-rule="evenodd" d="M1.19922 9.29999C1.19922 8.96862 1.46785 8.69999 1.79922 8.69999L10.1992 8.69999C10.3583 8.69999 10.511 8.63678 10.6235 8.52426C10.736 8.41173 10.7992 8.25912 10.7992 8.09999L10.7992 6.59999C10.7992 6.26862 11.0678 5.99999 11.3992 5.99999C11.7306 5.99999 11.9992 6.26862 11.9992 6.59999L11.9992 8.09999C11.9992 8.57738 11.8096 9.03522 11.472 9.37278C11.1344 9.71035 10.6766 9.89999 10.1992 9.89999L1.79922 9.89999C1.46785 9.89999 1.19922 9.63136 1.19922 9.29999Z" fill="#8296AA"/>
        <path fill-rule="evenodd" clip-rule="evenodd" d="M7.34845 5.1951C7.13024 4.94572 7.15551 4.56666 7.4049 4.34845L9.28884 2.7L7.4049 1.05154C7.15551 0.833336 7.13024 0.454278 7.34845 0.204896C7.56666 -0.0444854 7.94572 -0.0697564 8.1951 0.148453L10.5951 2.24845C10.7253 2.36239 10.8 2.52698 10.8 2.7C10.8 2.87302 10.7253 3.03761 10.5951 3.15155L8.1951 5.25155C7.94572 5.46975 7.56666 5.44448 7.34845 5.1951Z" fill="#8296AA"/>
        <path fill-rule="evenodd" clip-rule="evenodd" d="M0.6 6C0.268629 6 -1.17422e-08 5.73137 -2.62268e-08 5.4L-9.17939e-08 3.9C-1.12661e-07 3.42261 0.189642 2.96477 0.527208 2.62721C0.864773 2.28964 1.32261 2.1 1.8 2.1L10.2 2.1C10.5314 2.1 10.8 2.36863 10.8 2.7C10.8 3.03137 10.5314 3.3 10.2 3.3L1.8 3.3C1.64087 3.3 1.48826 3.36321 1.37574 3.47574C1.26321 3.58826 1.2 3.74087 1.2 3.9L1.2 5.4C1.2 5.73137 0.931371 6 0.6 6Z" fill="#8296AA"/>
    </g>
    <defs>
        <clipPath id="clip0_517_97991">
            <rect width="12" height="12" fill="white"/>
        </clipPath>
    </defs>
</svg>
