<svg width="24" height="24" viewBox="0 0 24 24" fill="none" xmlns="http://www.w3.org/2000/svg">
    <rect width="24" height="24" rx="8" fill="#1890FF"/>
    <path d="M9.81142 16.6654C9.54705 16.6658 9.28585 16.6069 9.04647 16.4929C8.80708 16.3788 8.59541 16.2124 8.42658 16.0056L6.84571 13.9625C6.77907 13.8803 6.72924 13.7855 6.69915 13.6835C6.66907 13.5815 6.65933 13.4744 6.67051 13.3685C6.68169 13.2626 6.71356 13.1601 6.76425 13.0669C6.81495 12.9737 6.88344 12.8918 6.96571 12.8259C7.04799 12.76 7.14238 12.7115 7.24335 12.6832C7.34432 12.6549 7.44983 12.6474 7.55369 12.6612C7.65755 12.6749 7.75767 12.7096 7.84815 12.7632C7.93864 12.8168 8.01768 12.8883 8.08063 12.9734L9.65312 14.9984C9.67173 15.0243 9.69714 15.0444 9.72643 15.0562C9.75573 15.0681 9.78773 15.0713 9.81875 15.0656C9.85302 15.0656 9.88684 15.0577 9.9177 15.0426C9.94856 15.0275 9.97565 15.0054 9.99697 14.9782L15.7596 7.64004C15.8236 7.55661 15.9032 7.48691 15.9938 7.43498C16.0844 7.38305 16.1843 7.34993 16.2876 7.33754C16.391 7.32514 16.4957 7.33372 16.5957 7.36277C16.6958 7.39182 16.7891 7.44077 16.8704 7.50678C16.9517 7.57279 17.0193 7.65455 17.0693 7.74731C17.1193 7.84008 17.1507 7.94201 17.1616 8.04719C17.1726 8.15238 17.1629 8.25873 17.1331 8.36009C17.1034 8.46144 17.0541 8.55578 16.9882 8.63764L11.2151 15.9832C11.0473 16.195 10.8352 16.3662 10.5942 16.4842C10.3532 16.6022 10.0894 16.6641 9.8219 16.6654H9.81142Z" fill="white"/>
</svg>
