<svg width="12" height="12" viewBox="0 0 12 12" fill="none" xmlns="http://www.w3.org/2000/svg">
    <path fill-rule="evenodd" clip-rule="evenodd" d="M0 0.6C0 0.268629 0.268629 0 0.6 0H11.4C11.7314 0 12 0.268629 12 0.6V11.4C12 11.7314 11.7314 12 11.4 12H0.6C0.268629 12 0 11.7314 0 11.4V0.6ZM1.2 1.2V10.8H10.8V1.2H1.2Z" fill="#8296AA"/>
    <path fill-rule="evenodd" clip-rule="evenodd" d="M8.718 3.0912C8.999 3.26683 9.08443 3.637 8.9088 3.918L5.9088 8.718C5.81189 8.87305 5.64957 8.97546 5.46789 8.99615C5.28622 9.01684 5.10503 8.95356 4.97574 8.82426L3.17574 7.02426C2.94142 6.78995 2.94142 6.41005 3.17574 6.17574C3.41005 5.94142 3.78995 5.94142 4.02426 6.17574L5.29094 7.44241L7.8912 3.282C8.06683 3.001 8.437 2.91558 8.718 3.0912Z" fill="#8296AA"/>
</svg>
