<svg width="16" height="16" viewBox="0 0 16 16" fill="none" xmlns="http://www.w3.org/2000/svg">
    <circle cx="8" cy="8" r="8" fill="#F2994A"/>
    <path fill-rule="evenodd" clip-rule="evenodd" d="M10.299 3.82812C11.3117 3.93379 12.1117 4.76694 12.1673 5.79507V10.1905C12.1109 11.2328 11.2895 12.0748 10.257 12.1615H5.51122C4.60435 11.9331 3.83398 11.054 3.83398 10.0759V5.90968C3.83398 4.93156 4.59114 4.05645 5.49801 3.82812H10.299ZM4.62638 5.90968V10.0759C4.62638 10.7923 5.20829 11.3752 5.92356 11.3752H7.606V9.37236H7.14728C6.62201 9.35159 6.6216 8.59969 7.14728 8.57871H7.606V7.78506H7.14728C6.62201 7.76429 6.6216 7.01239 7.14728 6.99141H7.606V6.19776H7.14728C6.62201 6.17699 6.6216 5.42509 7.14728 5.40411H7.606V4.61046H5.92356C5.20829 4.61046 4.62638 5.19327 4.62638 5.90968ZM8.85712 10.166H8.39839V11.3751H10.0808C10.7961 11.3751 11.378 10.7923 11.378 10.0759V5.90968C11.378 5.19327 10.7961 4.61046 10.0808 4.61046H8.39839V6.19776H8.85712C9.38239 6.21853 9.38275 6.97043 8.85712 6.99141H8.39839V7.78506H8.85712C9.38239 7.80583 9.38275 8.55774 8.85712 8.57871H8.39839V9.37236H8.85712C9.38239 9.39314 9.38275 10.145 8.85712 10.166Z" fill="white"/>
</svg>
