<svg width="16" height="14" viewBox="0 0 16 14" fill="none" xmlns="http://www.w3.org/2000/svg">
    <path d="M14.4368 2.33203H7.19425C7.12438 2.3319 7.05526 2.31829 6.99099 2.292C6.92671 2.26572 6.86861 2.2273 6.82012 2.17903L5.42261 0.791032C5.27633 0.645898 5.10112 0.530473 4.90741 0.451621C4.7137 0.372769 4.50544 0.3321 4.29502 0.332031H1.86126C1.36797 0.33256 0.895031 0.52076 0.546127 0.85537C0.197223 1.18998 0.000827355 1.64369 0 2.11703V11.8804C0.000827355 12.3537 0.197223 12.8074 0.546127 13.142C0.895031 13.4766 1.36797 13.6648 1.86126 13.6654H13.9406C14.4339 13.6648 14.9474 13.6433 15.4539 13.142C15.8424 12.7682 15.9992 11.9787 16 11.5054V3.83203C16 3.43421 15.8353 3.05268 15.5421 2.77137C15.249 2.49007 14.8514 2.33203 14.4368 2.33203Z" fill="#F2C94C"/>
    <path fill-rule="evenodd" clip-rule="evenodd" d="M3.36914 4.4987C3.36914 4.26858 3.5765 4.08203 3.8323 4.08203H12.1691C12.4249 4.08203 12.6323 4.26858 12.6323 4.4987C12.6323 4.72882 12.4249 4.91536 12.1691 4.91536H3.8323C3.5765 4.91536 3.36914 4.72882 3.36914 4.4987Z" fill="white"/>
</svg>
