<svg width="12" height="12" viewBox="0 0 12 12" fill="none" xmlns="http://www.w3.org/2000/svg">
    <path d="M11 7.66667C11 7.96135 10.8829 8.24397 10.6746 8.45234C10.4662 8.66071 10.1836 8.77778 9.88889 8.77778H6L3.22222 11V8.77778H2.11111C1.81643 8.77778 1.53381 8.66071 1.32544 8.45234C1.11706 8.24397 1 7.96135 1 7.66667V2.11111C1 1.81643 1.11706 1.53381 1.32544 1.32544C1.53381 1.11706 1.81643 1 2.11111 1H9.88889C10.1836 1 10.4662 1.11706 10.6746 1.32544C10.8829 1.53381 11 1.81643 11 2.11111V7.66667Z" stroke="#8296AA" stroke-width="1.6" stroke-linecap="round" stroke-linejoin="round"/>
</svg>
