<svg width="24" height="24" viewBox="0 0 24 24" fill="none" xmlns="http://www.w3.org/2000/svg">
    <path fill-rule="evenodd" clip-rule="evenodd" d="M12 24C18.6274 24 24 18.6274 24 12C24 5.37258 18.6274 0 12 0C5.37258 0 0 5.37258 0 12C0 18.6274 5.37258 24 12 24ZM15.506 16.9205C15.8965 17.3111 16.5297 17.3111 16.9202 16.9205C17.3107 16.53 17.3107 15.8968 16.9202 15.5063L14.0918 12.6779C13.7013 12.2874 13.7013 11.6542 14.0918 11.2637L16.9202 8.43525C17.3107 8.04473 17.3107 7.41156 16.9202 7.02104C16.5297 6.63051 15.8965 6.63051 15.506 7.02104L12.6776 9.84946C12.287 10.24 11.6539 10.24 11.2634 9.84946L8.43493 7.02104C8.0444 6.63051 7.41124 6.63051 7.02071 7.02104C6.63019 7.41156 6.63019 8.04473 7.02071 8.43525L9.84914 11.2637C10.2397 11.6542 10.2397 12.2874 9.84914 12.6779L7.02071 15.5063C6.63019 15.8968 6.63019 16.53 7.02071 16.9205C7.41124 17.3111 8.0444 17.3111 8.43493 16.9205L11.2634 14.0921C11.6539 13.7016 12.287 13.7016 12.6776 14.0921L15.506 16.9205Z" fill="#FF4D4F"/>
</svg>

