<svg width="52" height="52" viewBox="0 0 52 52" fill="none" xmlns="http://www.w3.org/2000/svg">
    <path d="M20.066 7.65604L21.5204 4.05337C21.7672 3.44568 22.1995 2.92422 22.7603 2.55769C23.3211 2.19115 23.9841 1.99673 24.6619 2.00004H27.3865C28.0619 1.99956 28.7217 2.19529 29.2796 2.56165C29.8375 2.928 30.2676 3.44791 30.5135 4.05337L31.9679 7.65604L36.816 10.3627L40.7914 9.78403C41.4561 9.68959 42.1349 9.78945 42.74 10.0707C43.3451 10.3519 43.8485 10.8016 44.185 11.3614L45.5522 13.6387C45.8887 14.2015 46.0414 14.8489 45.9904 15.4965C45.9394 16.144 45.687 16.7618 45.2661 17.2694L42.7597 20.2934V25.7067L45.2661 28.7307C45.687 29.2382 45.9394 29.856 45.9904 30.5036C46.0414 31.1511 45.8887 31.7985 45.5522 32.3613L44.185 34.6387C43.8485 35.1985 43.3451 35.6481 42.74 35.9294C42.1349 36.2106 41.4561 36.3104 40.7914 36.216L36.816 35.6373L31.9679 38.344L30.5135 41.9467C30.2676 42.5521 29.8375 43.072 29.2796 43.4384C28.7217 43.8047 28.0619 44.0005 27.3865 44H24.6619C23.9866 44.0005 23.3268 43.8047 22.7689 43.4384C22.211 43.072 21.7809 42.5521 21.535 41.9467L20.0805 38.344L15.2325 35.6373L11.2571 36.216C10.5924 36.3104 9.91354 36.2106 9.30847 35.9294C8.7034 35.6481 8.2 35.1985 7.86348 34.6387L6.44785 32.3613C6.11131 31.7985 5.9586 31.1511 6.00962 30.5036C6.06064 29.856 6.31301 29.2382 6.73388 28.7307L9.24032 25.7067V20.2934L6.73388 17.2694C6.31301 16.7618 6.06064 16.144 6.00962 15.4965C5.9586 14.8489 6.11131 14.2015 6.44785 13.6387L7.815 11.3614C8.15152 10.8016 8.65492 10.3519 9.25999 10.0707C9.86506 9.78945 10.5439 9.68959 11.2086 9.78403L15.184 10.3627L20.066 7.65604ZM19.9642 23C19.9642 24.1537 20.3196 25.2816 20.9855 26.2408C21.6514 27.2001 22.5978 27.9478 23.7052 28.3893C24.8125 28.8308 26.031 28.9463 27.2065 28.7213C28.382 28.4962 29.4618 27.9406 30.3093 27.1248C31.1569 26.309 31.734 25.2696 31.9678 24.138C32.2017 23.0065 32.0817 21.8336 31.623 20.7677C31.1643 19.7018 30.3876 18.7908 29.391 18.1498C28.3945 17.5088 27.2228 17.1667 26.0242 17.1667C24.417 17.1667 22.8756 17.7813 21.7391 18.8752C20.6027 19.9692 19.9642 21.4529 19.9642 23Z" fill="#69C0FF"/>
    <g filter="url(#filter0_b_1898_238304)">
        <circle cx="27" cy="23" r="10" fill="white" fill-opacity="0.15"/>
    </g>
    <g filter="url(#filter1_b_1898_238304)">
        <path d="M43 50H10C11.0864 44.6667 15.8667 34 26.2963 34C36.7259 34 41.7778 44.6667 43 50Z" fill="white" fill-opacity="0.15"/>
    </g>
    <defs>
        <filter id="filter0_b_1898_238304" x="1" y="-3" width="52" height="52" filterUnits="userSpaceOnUse" color-interpolation-filters="sRGB">
            <feFlood flood-opacity="0" result="BackgroundImageFix"/>
            <feGaussianBlur in="BackgroundImage" stdDeviation="8"/>
            <feComposite in2="SourceAlpha" operator="in" result="effect1_backgroundBlur_1898_238304"/>
            <feBlend mode="normal" in="SourceGraphic" in2="effect1_backgroundBlur_1898_238304" result="shape"/>
        </filter>
        <filter id="filter1_b_1898_238304" x="-6" y="18" width="65" height="48" filterUnits="userSpaceOnUse" color-interpolation-filters="sRGB">
            <feFlood flood-opacity="0" result="BackgroundImageFix"/>
            <feGaussianBlur in="BackgroundImage" stdDeviation="8"/>
            <feComposite in2="SourceAlpha" operator="in" result="effect1_backgroundBlur_1898_238304"/>
            <feBlend mode="normal" in="SourceGraphic" in2="effect1_backgroundBlur_1898_238304" result="shape"/>
        </filter>
    </defs>
</svg>
