<svg width="28" height="26" viewBox="0 0 28 26" fill="none" xmlns="http://www.w3.org/2000/svg">
    <path d="M0 0C1.93342 15.0985 7.47071 25.9998 14 25.9998C20.5292 25.9998 26.0665 15.0985 27.9999 0H23.2873C21.5463 10.4734 17.6035 16.5453 14 16.5453C10.3964 16.5453 6.45359 10.4734 4.71264 0H0Z" fill="#096DD9"/>
    <path d="M2.79883 0C3.6375 14.7259 8.33269 26 13.9991 26C19.6656 26 24.3608 14.7259 25.1994 0H20.624C20.2813 4.53688 19.4639 8.40536 18.4199 11.2357C17.033 14.9958 15.431 16.5455 13.9991 16.5455C12.5673 16.5455 10.9652 14.9958 9.57838 11.2357C8.5344 8.40536 7.71691 4.53688 7.37422 0H2.79883Z" fill="#40A9FF"/>
    <path d="M2.79883 0C3.6375 14.7259 8.33269 26 13.9991 26C19.6656 26 24.3608 14.7259 25.1994 0H20.624C20.2813 4.53688 19.4639 8.40536 18.4199 11.2357C17.033 14.9958 15.431 16.5455 13.9991 16.5455C12.5673 16.5455 10.9652 14.9958 9.57838 11.2357C8.5344 8.40536 7.71691 4.53688 7.37422 0H2.79883Z" fill="#40A9FF"/>
    <path d="M2.79883 0C3.6375 14.7259 8.33269 26 13.9991 26C19.6656 26 24.3608 14.7259 25.1994 0H20.624C20.2813 4.53688 19.4639 8.40536 18.4199 11.2357C17.033 14.9958 15.431 16.5455 13.9991 16.5455C12.5673 16.5455 10.9652 14.9958 9.57838 11.2357C8.5344 8.40536 7.71691 4.53688 7.37422 0H2.79883Z" fill="#40A9FF"/>
    <path d="M2.79883 0C3.6375 14.7259 8.33269 26 13.9991 26C19.6656 26 24.3608 14.7259 25.1994 0H20.624C20.2813 4.53688 19.4639 8.40536 18.4199 11.2357C17.033 14.9958 15.431 16.5455 13.9991 16.5455C12.5673 16.5455 10.9652 14.9958 9.57838 11.2357C8.5344 8.40536 7.71691 4.53688 7.37422 0H2.79883Z" fill="#40A9FF"/>
    <path d="M6.10558 0C6.07967 0.777383 6.06641 1.56585 6.06641 2.36354C6.06641 15.4175 9.61836 25.9998 13.9999 25.9998C18.3815 25.9998 21.9334 15.4175 21.9334 2.36354C21.9334 1.56585 21.9202 0.777383 21.8943 0H17.3458C17.3811 0.761441 17.4 1.55024 17.4 2.36354C17.4 7.18857 16.7362 11.1512 15.8958 13.6551C15.0454 16.1888 14.3054 16.5453 13.9999 16.5453C13.6945 16.5453 12.9544 16.1888 12.104 13.6551C11.2636 11.1512 10.5998 7.18857 10.5998 2.36354C10.5998 1.55024 10.6187 0.761441 10.6541 0H6.10558Z" fill="#BAE7FF"/>
</svg>
