<svg width="30" height="22" viewBox="0 0 30 22" fill="none" xmlns="http://www.w3.org/2000/svg">
    <rect x="3.72461" y="11" width="22.3423" height="11" rx="2" fill="#0074E0"/>
    <path d="M27.9272 11.0011L29.7547 18.5642C29.9791 19.5326 29.076 20.4297 27.8769 20.4297L1.91154 20.4297C0.712385 20.4297 -0.190676 19.5326 0.0337183 18.5642L1.86118 11.0011L1.86121 2.00112C1.86121 0.896553 2.75664 0.00112525 3.86121 0.00112533L25.9272 0.00112696C27.0318 0.00112704 27.9272 0.896559 27.9272 2.00113L27.9272 11.0011Z" fill="#40A9FF"/>
    <path d="M1.86133 2C1.86133 0.89543 2.75676 0 3.86133 0L25.9273 0C27.0319 0 27.9273 0.895431 27.9273 2L27.9273 11L1.86133 11L1.86133 2Z" fill="#0074E0"/>
    <path fill-rule="evenodd" clip-rule="evenodd" d="M13.3905 6.34889C13.7384 6.47051 13.9652 6.75701 13.9652 7.0748V14.1462C13.9652 14.5802 13.5484 14.9319 13.0343 14.9319C12.5201 14.9319 12.1033 14.5802 12.1033 14.1462V8.97168L10.8997 9.98752C10.5362 10.2944 9.94676 10.2944 9.58321 9.98752C9.21966 9.68068 9.21966 9.1832 9.58321 8.87636L12.376 6.51922C12.6422 6.2945 13.0426 6.22728 13.3905 6.34889Z" fill="#BAE7FF"/>
    <path fill-rule="evenodd" clip-rule="evenodd" d="M18.9745 6.34889C19.3224 6.47051 19.5492 6.75701 19.5492 7.0748V14.1462C19.5492 14.5802 19.1324 14.9319 18.6182 14.9319C18.1041 14.9319 17.6873 14.5802 17.6873 14.1462V8.97168L16.4837 9.98752C16.1202 10.2944 15.5307 10.2944 15.1672 9.98752C14.8036 9.68068 14.8036 9.1832 15.1672 8.87636L17.96 6.51922C18.2262 6.2945 18.6266 6.22728 18.9745 6.34889Z" fill="#BAE7FF"/>
</svg>
