<svg width="16" height="16" viewBox="0 0 16 16" fill="none" xmlns="http://www.w3.org/2000/svg">
    <path d="M5.59998 9.20078C5.59998 9.8373 5.85283 10.4478 6.30292 10.8978C6.75301 11.3479 7.36346 11.6008 7.99998 11.6008C8.6365 11.6008 9.24694 11.3479 9.69703 10.8978C10.1471 10.4478 10.4 9.8373 10.4 9.20078C10.4 8.56426 10.1471 7.95381 9.69703 7.50372C9.24694 7.05364 8.6365 6.80078 7.99998 6.80078C7.36346 6.80078 6.75301 7.05364 6.30292 7.50372C5.85283 7.95381 5.59998 8.56426 5.59998 9.20078Z" stroke="white" stroke-width="1.6" stroke-linecap="round" stroke-linejoin="round"/>
    <path d="M15.2 6C15.2 5.57565 15.0314 5.16869 14.7314 4.86863C14.4313 4.56857 14.0243 4.4 13.6 4.4H10.8V2.8C10.8 2.58783 10.7157 2.38434 10.5657 2.23431C10.4156 2.08429 10.2122 2 9.99999 2H5.99999C5.78781 2 5.58433 2.08429 5.4343 2.23431C5.28427 2.38434 5.19999 2.58783 5.19999 2.8V4.4H2.39999C1.97564 4.4 1.56868 4.56857 1.26862 4.86863C0.968559 5.16869 0.799988 5.57565 0.799988 6V12.4C0.799988 12.8243 0.968559 13.2313 1.26862 13.5314C1.56868 13.8314 1.97564 14 2.39999 14H13.6C14.0243 14 14.4313 13.8314 14.7314 13.5314C15.0314 13.2313 15.2 12.8243 15.2 12.4V6Z" stroke="white" stroke-width="1.6" stroke-linecap="round" stroke-linejoin="round"/>
</svg>
