<svg width="32" height="32" viewBox="0 0 32 32" fill="none" xmlns="http://www.w3.org/2000/svg">
    <path d="M16.8521 26.1725C16.2723 25.5927 16.6422 24.5999 17.46 24.5408L23.2373 24.1235C23.7116 24.0893 24.0888 23.7121 24.1231 23.2378L24.5407 17.46C24.5998 16.6422 25.5925 16.2724 26.1723 16.8521L29.7192 20.399C29.9157 20.5955 30.0171 20.8677 29.9971 21.1449L29.4601 28.5748C29.4258 29.0491 29.0486 29.4263 28.5743 29.4605L21.1448 29.9972C20.8676 30.0172 20.5955 29.9158 20.399 29.7193L16.8521 26.1725Z" fill="#096DD9"/>
    <path d="M15.1475 5.83112C15.7272 6.41089 15.3573 7.40367 14.5395 7.46274L8.76228 7.88005C8.288 7.91431 7.91077 8.29152 7.87649 8.7658L7.4589 14.5436C7.39979 15.3614 6.40704 15.7312 5.82728 15.1515L2.28037 11.6046C2.08387 11.408 1.98246 11.1358 2.00249 10.8587L2.53949 3.4288C2.57377 2.95452 2.951 2.57731 3.42528 2.54305L10.8548 2.0064C11.1319 1.98638 11.4041 2.08779 11.6006 2.28428L15.1475 5.83112Z" fill="#096DD9"/>
    <path d="M5.82721 16.856C6.40698 16.2763 7.39976 16.6461 7.45884 17.4639L7.87614 23.2412C7.9104 23.7155 8.28762 24.0927 8.76189 24.127L14.5397 24.5446C15.3575 24.6037 15.7273 25.5964 15.1476 26.1762L11.6006 29.7231C11.4041 29.9196 11.1319 30.021 10.8548 30.001L3.42489 29.464C2.95062 29.4297 2.5734 29.0525 2.53914 28.5782L2.00249 21.1487C1.98247 20.8715 2.08388 20.5994 2.28037 20.4029L5.82721 16.856Z" fill="#BAE7FF"/>
    <path d="M26.1725 15.1475C25.5927 15.7272 24.5999 15.3573 24.5408 14.5395L24.1235 8.76228C24.0893 8.288 23.7121 7.91077 23.2378 7.87649L17.46 7.4589C16.6422 7.39979 16.2724 6.40704 16.8521 5.82728L20.399 2.28037C20.5955 2.08387 20.8677 1.98246 21.1449 2.00249L28.5748 2.53949C29.0491 2.57377 29.4263 2.951 29.4605 3.42528L29.9972 10.8548C30.0172 11.1319 29.9158 11.4041 29.7193 11.6006L26.1725 15.1475Z" fill="#BAE7FF"/>
    <path d="M15.1558 11.1031C15.5488 10.4856 16.4502 10.4856 16.8432 11.1031L21.7222 18.7701C22.1458 19.4358 21.6676 20.307 20.8785 20.307H11.1205C10.3314 20.307 9.8532 19.4358 10.2768 18.7701L15.1558 11.1031Z" fill="#40A9FF"/>
</svg>
