<svg width="26" height="27" viewBox="0 0 26 27" fill="none" xmlns="http://www.w3.org/2000/svg">
    <path d="M24.6277 1.54465L7.42773 8.42465L25.9991 21.8889V2.47313C25.9991 1.76566 25.2846 1.2819 24.6277 1.54465Z" fill="#40A9FF"/>
    <path d="M26.0005 11.2098L6.96484 7.03125L26.0005 21.8884V11.2098Z" fill="#096DD9"/>
    <path d="M1.27343 26.485L18.5714 19.5658L6.45018e-08 6.10156L0 25.6229C5.74307e-08 26.2798 0.66349 26.729 1.27343 26.485Z" fill="#096DD9"/>
    <path d="M0 16.7801L19.0357 20.9587L8.37564e-07 6.10156L0 16.7801Z" fill="#40A9FF"/>
    <path d="M0 7.49523V1.97717C0 1.20234 0.892999 0.768316 1.50226 1.24702L26 20.4952L26 26.0133C26 26.7881 25.107 27.2221 24.4977 26.7434L0 7.49523Z" fill="#BAE7FF"/>
</svg>
