<svg width="44" height="38" viewBox="0 0 44 38" fill="none" xmlns="http://www.w3.org/2000/svg">
    <g opacity="0.2" clip-path="url(#clip0_1898_295772)">
        <path fill-rule="evenodd" clip-rule="evenodd" d="M11.5994 24.4C11.5994 24.1693 11.699 23.9498 11.8726 23.7979L15.0726 20.9979C15.4051 20.707 15.9105 20.7407 16.2015 21.0732C16.4924 21.4057 16.4587 21.9111 16.1262 22.2021L13.6143 24.4L16.1262 26.5979C16.4587 26.8889 16.4924 27.3943 16.2015 27.7268C15.9105 28.0593 15.4051 28.093 15.0726 27.8021L11.8726 25.0021C11.699 24.8501 11.5994 24.6307 11.5994 24.4Z" fill="white"/>
        <path fill-rule="evenodd" clip-rule="evenodd" d="M11.5994 24.4C11.5994 23.9582 11.9576 23.6 12.3994 23.6L23.5994 23.6C23.8116 23.6 24.0151 23.5157 24.1651 23.3657C24.3151 23.2156 24.3994 23.0122 24.3994 22.8L24.3994 20.8C24.3994 20.3582 24.7576 20 25.1994 20C25.6413 20 25.9994 20.3582 25.9994 20.8L25.9994 22.8C25.9994 23.4365 25.7466 24.047 25.2965 24.497C24.8464 24.9471 24.2359 25.2 23.5994 25.2L12.3994 25.2C11.9576 25.2 11.5994 24.8418 11.5994 24.4Z" fill="white"/>
        <path fill-rule="evenodd" clip-rule="evenodd" d="M19.7978 18.9268C19.5068 18.5943 19.5405 18.0889 19.873 17.7979L22.3849 15.6L19.873 13.4021C19.5405 13.1111 19.5068 12.6057 19.7978 12.2732C20.0887 11.9407 20.5941 11.907 20.9266 12.1979L24.1266 14.9979C24.3002 15.1498 24.3998 15.3693 24.3998 15.6C24.3998 15.8307 24.3002 16.0501 24.1266 16.2021L20.9266 19.0021C20.5941 19.293 20.0887 19.2593 19.7978 18.9268Z" fill="white"/>
        <path fill-rule="evenodd" clip-rule="evenodd" d="M10.7998 20C10.358 20 9.99982 19.6418 9.99982 19.2L9.99982 17.2C9.99982 16.5635 10.2527 15.953 10.7028 15.5029C11.1528 15.0529 11.7633 14.8 12.3998 14.8L23.5998 14.8C24.0416 14.8 24.3998 15.1582 24.3998 15.6C24.3998 16.0418 24.0416 16.4 23.5998 16.4L12.3998 16.4C12.1876 16.4 11.9842 16.4843 11.8341 16.6343C11.6841 16.7843 11.5998 16.9878 11.5998 17.2L11.5998 19.2C11.5998 19.6418 11.2416 20 10.7998 20Z" fill="white"/>
    </g>
    <defs>
        <filter id="filter0_b_1898_295772" x="-16" y="-14" width="68" height="68" filterUnits="userSpaceOnUse" color-interpolation-filters="sRGB">
            <feFlood flood-opacity="0" result="BackgroundImageFix"/>
            <feGaussianBlur in="BackgroundImage" stdDeviation="8"/>
            <feComposite in2="SourceAlpha" operator="in" result="effect1_backgroundBlur_1898_295772"/>
            <feBlend mode="normal" in="SourceGraphic" in2="effect1_backgroundBlur_1898_295772" result="shape"/>
        </filter>
        <clipPath id="clip0_1898_295772">
            <rect width="16" height="16" fill="white" transform="translate(10 12)"/>
        </clipPath>
    </defs>
</svg>
