<svg width="40" height="34" viewBox="0 0 40 34" fill="none" xmlns="http://www.w3.org/2000/svg">
    <g filter="url(#filter0_b_1898_234386)">
        <path d="M14.7356 3.6H27.4101C27.5323 3.59977 27.6533 3.57526 27.7658 3.52795C27.8782 3.48064 27.9799 3.41149 28.0648 3.3246L30.5104 0.826201C30.7664 0.56496 31.073 0.357196 31.412 0.215262C31.751 0.073328 32.1155 0.000122997 32.4837 0H36.7428C37.606 0.000951839 38.4337 0.339712 39.0443 0.942009C39.6549 1.54431 39.9986 2.36099 40 3.213V20.787C39.9986 21.639 39.6549 22.4557 39.0443 23.058C38.4337 23.6603 37.606 23.999 36.7428 24H15.6039C14.7406 23.999 13.8421 23.9602 12.9557 23.058C12.2758 22.3851 12.0014 20.964 12 20.112V6.30001C12 5.58392 12.2882 4.89716 12.8012 4.39082C13.3143 3.88447 14.0101 3.6 14.7356 3.6Z" fill="#69C0FF"/>
        <g filter="url(#filter1_b_1898_234386)">
            <path d="M34.2874 6.8H17.0863C16.9204 6.79969 16.7562 6.76701 16.6036 6.70393C16.4509 6.64085 16.3129 6.54865 16.1978 6.4328L12.8787 3.1016C12.5313 2.75328 12.1152 2.47626 11.6551 2.28702C11.195 2.09777 10.7004 2.00016 10.2007 2H4.42049C3.24893 2.00127 2.1257 2.45295 1.29705 3.25601C0.468404 4.05907 0.00196497 5.14798 0 6.284V29.716C0.00196497 30.852 0.468404 31.9409 1.29705 32.744C2.1257 33.547 3.24893 33.9987 4.42049 34H33.109C34.2806 33.9987 35.5 33.9469 36.703 32.744C37.6257 31.8468 37.998 29.952 38 28.816V10.4C38 9.44523 37.6088 8.52955 36.9126 7.85442C36.2163 7.17929 35.272 6.8 34.2874 6.8Z" fill="white" fill-opacity="0.16"/>
        </g>
        <path fill-rule="evenodd" clip-rule="evenodd" d="M8 12C8 11.4477 8.49249 11 9.1 11H28.9C29.5075 11 30 11.4477 30 12C30 12.5523 29.5075 13 28.9 13H9.1C8.49249 13 8 12.5523 8 12Z" fill="white" fill-opacity="0.16"/>
    </g>
    <defs>
        <filter id="filter0_b_1898_234386" x="-16" y="-16" width="72" height="66" filterUnits="userSpaceOnUse" color-interpolation-filters="sRGB">
            <feFlood flood-opacity="0" result="BackgroundImageFix"/>
            <feGaussianBlur in="BackgroundImage" stdDeviation="8"/>
            <feComposite in2="SourceAlpha" operator="in" result="effect1_backgroundBlur_1898_234386"/>
            <feBlend mode="normal" in="SourceGraphic" in2="effect1_backgroundBlur_1898_234386" result="shape"/>
        </filter>
        <filter id="filter1_b_1898_234386" x="-16" y="-14" width="70" height="64" filterUnits="userSpaceOnUse" color-interpolation-filters="sRGB">
            <feFlood flood-opacity="0" result="BackgroundImageFix"/>
            <feGaussianBlur in="BackgroundImage" stdDeviation="8"/>
            <feComposite in2="SourceAlpha" operator="in" result="effect1_backgroundBlur_1898_234386"/>
            <feBlend mode="normal" in="SourceGraphic" in2="effect1_backgroundBlur_1898_234386" result="shape"/>
        </filter>
    </defs>
</svg>

