<svg width="40" height="35" viewBox="0 0 40 35" fill="none" xmlns="http://www.w3.org/2000/svg">
    <g clip-path="url(#clip0_1898_237321)">
        <path d="M20.0016 5.83333H22.2864C22.3459 5.83332 22.4033 5.81167 22.4478 5.77247C22.4924 5.73326 22.521 5.67919 22.5284 5.62042L22.9021 2.64347C22.9094 2.5847 22.9381 2.53063 22.9826 2.49142C23.0272 2.45222 23.0846 2.43057 23.144 2.43056H33.4445C33.5039 2.43057 33.5613 2.45222 33.6059 2.49142C33.6504 2.53063 33.6791 2.5847 33.6864 2.64347L34.0601 5.62042C34.0675 5.67919 34.0961 5.73326 34.1407 5.77247C34.1852 5.81167 34.2426 5.83332 34.3021 5.83333H36.5869C36.6593 5.83335 36.7307 5.81733 36.7961 5.78643C36.8614 5.75554 36.9191 5.71054 36.9648 5.6547C37.0106 5.59887 37.0433 5.53359 37.0607 5.46359C37.078 5.39359 37.0794 5.32064 37.065 5.25L36.2474 1.225C36.1888 0.886043 36.0132 0.578135 35.751 0.354469C35.4888 0.130802 35.1564 0.00542599 34.8113 0H21.7772C21.4331 0.00498543 21.1016 0.129364 20.8396 0.351717C20.5777 0.574071 20.4017 0.880484 20.3421 1.21819L19.5235 5.25C19.509 5.32064 19.5105 5.39359 19.5278 5.46359C19.5452 5.53359 19.5779 5.59887 19.6236 5.6547C19.6694 5.71054 19.7271 5.75554 19.7924 5.78643C19.8578 5.81733 19.9292 5.83335 20.0016 5.83333Z" fill="#69C0FF"/>
        <path d="M37.5625 6.80556H19.0259C18.6378 6.80556 18.2656 6.9592 17.9911 7.23269C17.7167 7.50618 17.5625 7.87711 17.5625 8.26389C17.5625 8.65066 17.7167 9.0216 17.9911 9.29509C18.2656 9.56858 18.6378 9.72222 19.0259 9.72222H19.9137L21.0932 22.0286C21.1283 22.3882 21.2974 22.7216 21.567 22.9631C21.8366 23.2047 22.1873 23.3367 22.5498 23.3333H33.9713C34.3258 23.3337 34.6685 23.2057 34.9355 22.9732C35.2025 22.7408 35.3757 22.4196 35.423 22.0694L37.0015 9.72222H37.5625C37.9506 9.72222 38.3228 9.56858 38.5973 9.29509C38.8717 9.0216 39.0259 8.65066 39.0259 8.26389C39.0259 7.87711 38.8717 7.50618 38.5973 7.23269C38.3228 6.9592 37.9506 6.80556 37.5625 6.80556Z" fill="#69C0FF"/>
    </g>
    <g filter="url(#filter0_b_1898_237321)">
        <path d="M27.4747 10.5914C27.4991 10.493 27.5012 10.3905 27.4808 10.2912L26.3287 4.63541C26.2461 4.15911 25.9987 3.72645 25.6293 3.41215C25.2598 3.09786 24.7914 2.92169 24.3052 2.91406H5.93886C5.45404 2.92107 4.98686 3.09584 4.61775 3.40829C4.24864 3.72073 4.00071 4.1513 3.91664 4.62584L2.76325 10.2912C2.74286 10.3905 2.74494 10.493 2.76935 10.5914C13.6585 10.6918 15.6098 10.6918 27.4747 10.5914Z" fill="white" fill-opacity="0.16"/>
        <path d="M28.1818 11.7728H2.06208C1.51519 11.7728 0.990686 11.9887 0.60397 12.373C0.217255 12.7573 0 13.2786 0 13.822C0 14.3655 0.217255 14.8868 0.60397 15.2711C0.990686 15.6554 1.51519 15.8713 2.06208 15.8713H3.31308L4.97512 33.1639C5.0246 33.6692 5.26279 34.1377 5.64272 34.4771C6.02265 34.8165 6.51675 35.0021 7.02758 34.9973H23.1215C23.6211 34.9978 24.1038 34.818 24.4801 34.4913C24.8563 34.1647 25.1004 33.7134 25.167 33.2213L27.3913 15.8713H28.1818C28.7287 15.8713 29.2532 15.6554 29.6399 15.2711C30.0266 14.8868 30.2439 14.3655 30.2439 13.822C30.2439 13.2786 30.0266 12.7573 29.6399 12.373C29.2532 11.9887 28.7287 11.7728 28.1818 11.7728Z" fill="white" fill-opacity="0.16"/>
    </g>
    <defs>
        <filter id="filter0_b_1898_237321" x="-16" y="-13.0859" width="62.2422" height="64.0859" filterUnits="userSpaceOnUse" color-interpolation-filters="sRGB">
            <feFlood flood-opacity="0" result="BackgroundImageFix"/>
            <feGaussianBlur in="BackgroundImage" stdDeviation="8"/>
            <feComposite in2="SourceAlpha" operator="in" result="effect1_backgroundBlur_1898_237321"/>
            <feBlend mode="normal" in="SourceGraphic" in2="effect1_backgroundBlur_1898_237321" result="shape"/>
        </filter>
        <clipPath id="clip0_1898_237321">
            <rect width="23.4146" height="23.3333" fill="white" transform="translate(16.5859)"/>
        </clipPath>
    </defs>
</svg>

