<svg width="38" height="32" viewBox="0 0 38 32" fill="none" xmlns="http://www.w3.org/2000/svg">
    <path d="M34.2874 4.8H17.0863C16.9204 4.79969 16.7562 4.76701 16.6036 4.70393C16.4509 4.64085 16.3129 4.54865 16.1978 4.4328L12.8787 1.1016C12.5313 0.75328 12.1152 0.476261 11.6551 0.287016C11.195 0.0977707 10.7004 0.000163997 10.2007 0H4.42049C3.24893 0.00126912 2.1257 0.452949 1.29705 1.25601C0.468404 2.05907 0.00196497 3.14798 0 4.284V27.716C0.00196497 28.852 0.468404 29.9409 1.29705 30.744C2.1257 31.547 3.24893 31.9987 4.42049 32H33.109C34.2806 31.9987 35.5 31.9469 36.703 30.744C37.6257 29.8468 37.998 27.952 38 26.816V8.40001C38 7.44523 37.6088 6.52955 36.9126 5.85442C36.2163 5.17929 35.272 4.8 34.2874 4.8Z" fill="#F2C94C"/>
    <path fill-rule="evenodd" clip-rule="evenodd" d="M8 10C8 9.44772 8.49249 9 9.1 9H28.9C29.5075 9 30 9.44772 30 10C30 10.5523 29.5075 11 28.9 11H9.1C8.49249 11 8 10.5523 8 10Z" fill="white"/>
</svg>
