<svg width="24" height="24" viewBox="0 0 24 24" fill="none" xmlns="http://www.w3.org/2000/svg">
    <path d="M20.4779 11.1642C20.1026 10.7893 19.4953 10.7891 19.12 11.1629L19.1196 11.1625L14.8528 15.4295C14.6818 15.5976 14.4483 15.7017 14.1904 15.7046H13.1548H12.5604H9.5818C9.30422 15.7046 9.07893 15.4793 9.07893 15.202C9.07893 14.9237 9.30422 14.6987 9.5818 14.6987H13.1059V14.6971C13.6356 14.696 14.0653 14.2662 14.0653 13.7359C14.0653 13.2055 13.6359 12.7757 13.1059 12.7748V12.7746H8.60034C7.7623 12.7746 6.94808 12.9427 6.37372 13.4787L6.36754 13.4789L6.30775 13.5382C6.30356 13.5427 6.29936 13.5464 6.29517 13.5508L3.272 16.5506C3.08731 16.7412 2.99574 16.9884 3.00015 17.2351V20.6682C3.00015 21.1998 3.43043 21.63 3.96154 21.6296C4.22699 21.6296 4.46728 21.5221 4.64115 21.3483C4.64358 21.3458 4.64623 21.3454 4.64887 21.3439L7.04848 18.944C7.14932 18.8472 7.28017 18.7995 7.41057 18.8033C7.53436 18.8072 8.3991 18.8033 8.54738 18.8033L8.54694 18.8019C8.56459 18.8021 8.58247 18.8033 8.60012 18.8033H13.6857C13.7255 18.8017 13.7638 18.7997 13.8064 18.7997C14.0701 18.7997 14.3084 18.6929 14.4823 18.5204L20.4799 12.523L20.4788 12.5219C20.853 12.147 20.8528 11.5391 20.4779 11.1642Z" fill="#1890FF"/>
    <path d="M3.28139 12.4652C3.65672 12.84 4.26396 12.8403 4.63929 12.4665L4.63973 12.4669L8.90629 8.19992C9.07729 8.03178 9.31075 7.92764 9.56869 7.92477H10.6042H11.1987H14.1773C14.4548 7.92477 14.6801 8.15005 14.6801 8.42742C14.6801 8.70566 14.4548 8.93073 14.1773 8.93073H10.6534V8.93249C10.1236 8.93359 9.69402 9.36343 9.69402 9.89366C9.69402 10.4241 10.1234 10.8539 10.6534 10.8548V10.855H15.1589C15.997 10.855 16.8112 10.6869 17.3856 10.1509L17.3917 10.1507L17.4515 10.0914C17.4557 10.087 17.4599 10.0832 17.4641 10.0788L20.4873 7.07856C20.672 6.88792 20.7635 6.64078 20.7591 6.39409V2.96139C20.7591 2.42983 20.3289 1.99956 19.7977 2C19.5323 2 19.292 2.10746 19.1181 2.28133C19.1157 2.28376 19.1131 2.2842 19.1104 2.28575L16.7106 4.68535C16.6097 4.78222 16.4789 4.82988 16.3485 4.82613C16.2247 4.82216 15.36 4.82613 15.2117 4.82613L15.2121 4.82745C15.1945 4.82723 15.1766 4.82613 15.1589 4.82613H10.0733C10.0336 4.82767 9.99521 4.82966 9.95263 4.82966C9.68894 4.82966 9.45064 4.93646 9.27676 5.10901L3.27918 11.1059L3.28029 11.107C2.90628 11.4824 2.9065 12.0903 3.28139 12.4652Z" fill="#1890FF" fill-opacity="0.4"/>
</svg>
