<svg width="16" height="16" viewBox="0 0 16 16" fill="none" xmlns="http://www.w3.org/2000/svg">
    <g clip-path="url(#clip0_418_48743)">
        <path fill-rule="evenodd" clip-rule="evenodd" d="M2.34315 2.34315C3.84344 0.842857 5.87827 1.83854e-06 8 1.65306e-06C10.1217 1.46757e-06 12.1566 0.842857 13.6569 2.34315C15.1571 3.84344 16 5.87827 16 8C16 10.1217 15.1571 12.1566 13.6569 13.6569C12.1566 15.1571 10.1217 16 8 16C5.87827 16 3.84344 15.1571 2.34315 13.6569C0.842855 12.1566 4.3978e-07 10.1217 2.54292e-07 8C6.88044e-08 5.87827 0.842855 3.84344 2.34315 2.34315ZM8 1.6C6.30261 1.6 4.67475 2.27429 3.47452 3.47452C2.27428 4.67475 1.6 6.30262 1.6 8C1.6 9.69739 2.27428 11.3253 3.47452 12.5255C4.67475 13.7257 6.30262 14.4 8 14.4C9.69739 14.4 11.3252 13.7257 12.5255 12.5255C13.7257 11.3253 14.4 9.69739 14.4 8C14.4 6.30262 13.7257 4.67475 12.5255 3.47452C11.3252 2.27429 9.69739 1.6 8 1.6Z" fill="#fff"/>
        <path fill-rule="evenodd" clip-rule="evenodd" d="M8 3.2C8.44183 3.2 8.8 3.55817 8.8 4L8.8 7.2C8.8 7.64183 8.44183 8 8 8C7.55817 8 7.2 7.64183 7.2 7.2L7.2 4C7.2 3.55817 7.55817 3.2 8 3.2Z" fill="#fff"/>
        <path d="M6.4 11.2C6.4 11.6243 6.56857 12.0313 6.86863 12.3314C7.16869 12.6314 7.57565 12.8 8 12.8C8.42435 12.8 8.83131 12.6314 9.13137 12.3314C9.43143 12.0313 9.6 11.6243 9.6 11.2C9.6 10.7757 9.43143 10.3687 9.13137 10.0686C8.83131 9.76857 8.42435 9.6 8 9.6C7.57565 9.6 7.16869 9.76857 6.86863 10.0686C6.56857 10.3687 6.4 10.7757 6.4 11.2Z" fill="#fff"/>
    </g>
    <defs>
        <clipPath id="clip0_418_48743">
            <rect width="16" height="16" fill="currentColor"/>
        </clipPath>
    </defs>
</svg>