<svg width="16" height="16" viewBox="0 0 16 16" fill="none" xmlns="http://www.w3.org/2000/svg">
    <path d="M3.33333 4.0026C3.33333 4.01963 3.34015 4.11565 3.52806 4.28225C3.71519 4.44817 4.02401 4.62804 4.46285 4.7926C5.3356 5.11988 6.58602 5.33594 8 5.33594C9.41398 5.33594 10.6644 5.11988 11.5372 4.7926C11.976 4.62804 12.2848 4.44817 12.4719 4.28225C12.6599 4.11565 12.6667 4.01963 12.6667 4.0026C12.6667 3.98558 12.6599 3.88955 12.4719 3.72295C12.2848 3.55704 11.976 3.37717 11.5372 3.21261C10.6644 2.88533 9.41398 2.66927 8 2.66927C6.58602 2.66927 5.3356 2.88533 4.46285 3.21261C4.02401 3.37717 3.71519 3.55704 3.52806 3.72295C3.34015 3.88955 3.33333 3.98558 3.33333 4.0026ZM2 4.0026C2 3.46734 2.29166 3.03723 2.64352 2.72527C2.99615 2.41263 3.46837 2.16154 3.99468 1.96417C5.05222 1.5676 6.46846 1.33594 8 1.33594C9.53154 1.33594 10.9478 1.5676 12.0053 1.96417C12.5316 2.16154 13.0039 2.41263 13.3565 2.72527C13.7083 3.03723 14 3.46734 14 4.0026V6.66927V9.33594V12.0026C14 12.5379 13.7083 12.968 13.3565 13.2799C13.0039 13.5926 12.5316 13.8437 12.0053 14.041C10.9478 14.4376 9.53154 14.6693 8 14.6693C6.46846 14.6693 5.05222 14.4376 3.99468 14.041C3.46837 13.8437 2.99615 13.5926 2.64352 13.2799C2.29166 12.968 2 12.5379 2 12.0026V9.33594V6.66927V4.0026ZM3.33333 6.66927C3.33333 6.68629 3.34015 6.78232 3.52806 6.94892C3.71519 7.11483 4.02401 7.2947 4.46285 7.45926C5.3356 7.78655 6.58602 8.0026 8 8.0026C9.41398 8.0026 10.6644 7.78655 11.5372 7.45926C11.976 7.2947 12.2848 7.11483 12.4719 6.94892C12.6599 6.78232 12.6667 6.68629 12.6667 6.66927V5.74673C12.4606 5.85581 12.2383 5.95369 12.0053 6.04104C10.9478 6.43761 9.53154 6.66927 8 6.66927C6.46846 6.66927 5.05222 6.43761 3.99468 6.04104C3.76175 5.95369 3.5394 5.85581 3.33333 5.74673V6.66927ZM3.33333 8.4134V9.33594C3.33333 9.35296 3.34015 9.44899 3.52806 9.61559C3.71519 9.7815 4.02401 9.96137 4.46285 10.1259C5.3356 10.4532 6.58602 10.6693 8 10.6693C9.41398 10.6693 10.6644 10.4532 11.5372 10.1259C11.976 9.96137 12.2848 9.7815 12.4719 9.61559C12.6599 9.44899 12.6667 9.35296 12.6667 9.33594V8.4134C12.4606 8.52248 12.2383 8.62035 12.0053 8.7077C10.9478 9.10428 9.53154 9.33594 8 9.33594C6.46846 9.33594 5.05222 9.10428 3.99468 8.7077C3.76175 8.62035 3.5394 8.52248 3.33333 8.4134ZM3.33333 11.0801V12.0026C3.33333 12.0196 3.34015 12.1157 3.52806 12.2823C3.71519 12.4482 4.02401 12.628 4.46285 12.7926C5.3356 13.1199 6.58602 13.3359 8 13.3359C9.41398 13.3359 10.6644 13.1199 11.5372 12.7926C11.976 12.628 12.2848 12.4482 12.4719 12.2823C12.6599 12.1157 12.6667 12.0196 12.6667 12.0026V11.0801C12.4606 11.1891 12.2383 11.287 12.0053 11.3744C10.9478 11.7709 9.53154 12.0026 8 12.0026C6.46846 12.0026 5.05222 11.7709 3.99468 11.3744C3.76175 11.287 3.5394 11.1891 3.33333 11.0801Z" fill="#8296AA"/>
</svg>
