<svg width="28" height="29" viewBox="0 0 28 29" fill="none" xmlns="http://www.w3.org/2000/svg">
    <path d="M23.8083 13.0506C23.2493 13.6095 22.2922 13.2529 22.2352 12.4645L21.8329 6.89457C21.7999 6.43732 21.4362 6.07363 20.9789 6.04058L15.4085 5.63797C14.6201 5.58099 14.2635 4.62386 14.8225 4.06491L18.2421 0.645309C18.4315 0.455859 18.694 0.35809 18.9612 0.377404L26.1244 0.895128C26.5816 0.928177 26.9453 1.29187 26.9784 1.74912L27.4957 8.91197C27.515 9.17918 27.4173 9.4416 27.2278 9.63103L23.8083 13.0506Z" fill="#BAE7FF"/>
    <path d="M4.07071 15.1818C4.62967 14.6229 5.58682 14.9795 5.64377 15.7679L6.0461 21.3379C6.07913 21.7951 6.44281 22.1588 6.90006 22.1918L12.4705 22.5945C13.2589 22.6514 13.6155 23.6086 13.0565 24.1675L9.63693 27.5871C9.44748 27.7766 9.18505 27.8743 8.91782 27.855L1.75461 27.3373C1.29735 27.3042 0.933681 26.9406 0.900652 26.4833L0.38326 19.3205C0.363959 19.0532 0.461728 18.7908 0.651169 18.6014L4.07071 15.1818Z" fill="#40A9FF"/>
    <path d="M6.76362 0.423828C7.1269 -0.141275 7.95296 -0.141276 8.31624 0.423827L14.9318 10.7147C15.3266 11.3289 14.8856 12.1366 14.1555 12.1366H0.924393C0.194239 12.1366 -0.246753 11.3289 0.148083 10.7147L6.76362 0.423828Z" fill="#096DD9"/>
    <path d="M21.2362 27.58C20.8729 28.1451 20.0468 28.1451 19.6835 27.58L13.068 17.2891C12.6732 16.6749 13.1142 15.8672 13.8443 15.8672L27.0754 15.8672C27.8055 15.8672 28.2465 16.6749 27.8517 17.2891L21.2362 27.58Z" fill="#096DD9"/>
</svg>
