<svg width="32" height="32" viewBox="0 0 32 32" fill="none" xmlns="http://www.w3.org/2000/svg">
    <path d="M30 16C30 19.713 28.525 23.274 25.8995 25.8995C23.274 28.525 19.713 30 16 30C12.287 30 8.72602 28.525 6.10051 25.8995C3.475 23.274 2 19.713 2 16L16 16L30 16Z" fill="#69C0FF"/>
    <circle cx="16" cy="16" r="7.875" fill="#BAE7FF"/>
    <path d="M16 2C18.7689 2 21.4757 2.82109 23.778 4.35943C26.0803 5.89777 27.8747 8.08427 28.9343 10.6424C29.9939 13.2006 30.2712 16.0155 29.731 18.7313C29.1908 21.447 27.8574 23.9416 25.8995 25.8995L16 16L16 2Z" fill="#096DD9"/>
</svg>
