<svg width="52" height="52" viewBox="0 0 52 52" fill="none" xmlns="http://www.w3.org/2000/svg">
    <g filter="url(#filter0_b_511_293174)">
        <circle cx="24" cy="18" r="10" fill="white" fill-opacity="0.15"/>
    </g>
    <g filter="url(#filter1_b_511_293174)">
        <path d="M40 45H7C8.08642 39.6667 12.8667 29 23.2963 29C33.7259 29 38.7778 39.6667 40 45Z" fill="white" fill-opacity="0.15"/>
    </g>
    <mask id="path-3-inside-1_511_293174" fill="white">
        <path fill-rule="evenodd" clip-rule="evenodd" d="M38.3638 20.636C41.3924 23.6646 41.8113 28.3146 39.6206 31.7917L44.3747 36.5458C45.1557 37.3268 45.1557 38.5932 44.3747 39.3742C43.5936 40.1553 42.3273 40.1553 41.5463 39.3742L36.7923 34.6202C33.3151 36.8115 28.6647 36.3927 25.6359 33.364C22.1212 29.8492 22.1212 24.1508 25.6359 20.636C29.1506 17.1213 34.8491 17.1213 38.3638 20.636ZM35.2276 30.2272C37.01 28.4449 37.01 25.5551 35.2276 23.7728C33.4453 21.9904 30.5555 21.9904 28.7731 23.7728C26.9908 25.5551 26.9908 28.4449 28.7731 30.2272C30.5555 32.0096 33.4453 32.0096 35.2276 30.2272Z"/>
    </mask>
    <path fill-rule="evenodd" clip-rule="evenodd" d="M38.3638 20.636C41.3924 23.6646 41.8113 28.3146 39.6206 31.7917L44.3747 36.5458C45.1557 37.3268 45.1557 38.5932 44.3747 39.3742C43.5936 40.1553 42.3273 40.1553 41.5463 39.3742L36.7923 34.6202C33.3151 36.8115 28.6647 36.3927 25.6359 33.364C22.1212 29.8492 22.1212 24.1508 25.6359 20.636C29.1506 17.1213 34.8491 17.1213 38.3638 20.636ZM35.2276 30.2272C37.01 28.4449 37.01 25.5551 35.2276 23.7728C33.4453 21.9904 30.5555 21.9904 28.7731 23.7728C26.9908 25.5551 26.9908 28.4449 28.7731 30.2272C30.5555 32.0096 33.4453 32.0096 35.2276 30.2272Z" fill="#1890FF"/>
    <path d="M39.6206 31.7917L38.7745 31.2586L38.3489 31.9342L38.9135 32.4988L39.6206 31.7917ZM38.3638 20.636L39.0709 19.9289V19.9289L38.3638 20.636ZM36.7923 34.6202L37.4994 33.9131L36.9347 33.3485L36.2591 33.7742L36.7923 34.6202ZM25.6359 33.364L24.9288 34.0711L25.6359 33.364ZM25.6359 20.636L24.9288 19.9289L25.6359 20.636ZM35.2276 23.7728L34.5205 24.4799V24.4799L35.2276 23.7728ZM28.7731 23.7728L29.4802 24.4799V24.4799L28.7731 23.7728ZM28.7731 30.2272L28.066 30.9343H28.066L28.7731 30.2272ZM40.4667 32.3247C42.9009 28.4612 42.4369 23.2949 39.0709 19.9289L37.6567 21.3431C40.3479 24.0343 40.7217 28.168 38.7745 31.2586L40.4667 32.3247ZM45.0818 35.8387L40.3277 31.0846L38.9135 32.4988L43.6676 37.2529L45.0818 35.8387ZM45.0818 40.0813C46.2534 38.9097 46.2534 37.0103 45.0818 35.8387L43.6676 37.2529C44.0581 37.6434 44.0581 38.2766 43.6676 38.6671L45.0818 40.0813ZM40.8392 40.0813C42.0107 41.2529 43.9102 41.2529 45.0818 40.0813L43.6676 38.6671C43.2771 39.0576 42.6439 39.0576 42.2534 38.6671L40.8392 40.0813ZM36.0852 35.3274L40.8392 40.0813L42.2534 38.6671L37.4994 33.9131L36.0852 35.3274ZM24.9288 34.0711C28.295 37.4373 33.4618 37.9011 37.3254 35.4663L36.2591 33.7742C33.1684 35.7219 29.0344 35.3482 26.343 32.6569L24.9288 34.0711ZM24.9288 19.9289C21.0236 23.8342 21.0236 30.1658 24.9288 34.0711L26.343 32.6569C23.2188 29.5327 23.2188 24.4673 26.343 21.3431L24.9288 19.9289ZM39.0709 19.9289C35.1657 16.0237 28.8341 16.0237 24.9288 19.9289L26.343 21.3431C29.4672 18.219 34.5325 18.219 37.6567 21.3431L39.0709 19.9289ZM34.5205 24.4799C35.9123 25.8717 35.9123 28.1283 34.5205 29.5201L35.9347 30.9343C38.1076 28.7615 38.1076 25.2385 35.9347 23.0657L34.5205 24.4799ZM29.4802 24.4799C30.8721 23.088 33.1287 23.088 34.5205 24.4799L35.9347 23.0657C33.7618 20.8928 30.2389 20.8928 28.066 23.0657L29.4802 24.4799ZM29.4802 29.5201C28.0884 28.1283 28.0884 25.8717 29.4802 24.4799L28.066 23.0657C25.8931 25.2385 25.8931 28.7615 28.066 30.9343L29.4802 29.5201ZM34.5205 29.5201C33.1287 30.912 30.8721 30.912 29.4802 29.5201L28.066 30.9343C30.2389 33.1072 33.7618 33.1072 35.9347 30.9343L34.5205 29.5201Z" fill="#1890FF" mask="url(#path-3-inside-1_511_293174)"/>
    <defs>
        <filter id="filter0_b_511_293174" x="-2" y="-8" width="52" height="52" filterUnits="userSpaceOnUse" color-interpolation-filters="sRGB">
            <feFlood flood-opacity="0" result="BackgroundImageFix"/>
            <feGaussianBlur in="BackgroundImage" stdDeviation="8"/>
            <feComposite in2="SourceAlpha" operator="in" result="effect1_backgroundBlur_511_293174"/>
            <feBlend mode="normal" in="SourceGraphic" in2="effect1_backgroundBlur_511_293174" result="shape"/>
        </filter>
        <filter id="filter1_b_511_293174" x="-9" y="13" width="65" height="48" filterUnits="userSpaceOnUse" color-interpolation-filters="sRGB">
            <feFlood flood-opacity="0" result="BackgroundImageFix"/>
            <feGaussianBlur in="BackgroundImage" stdDeviation="8"/>
            <feComposite in2="SourceAlpha" operator="in" result="effect1_backgroundBlur_511_293174"/>
            <feBlend mode="normal" in="SourceGraphic" in2="effect1_backgroundBlur_511_293174" result="shape"/>
        </filter>
    </defs>
</svg>

