<svg width="30" height="29" viewBox="0 0 30 29" fill="none" xmlns="http://www.w3.org/2000/svg">
    <path fill-rule="evenodd" clip-rule="evenodd" d="M17.8112 1.99609C17.8112 1.44381 17.3635 0.996094 16.8112 0.996094H13.1862C12.6339 0.996094 12.1862 1.44381 12.1862 1.99609V6.76436C12.1862 7.65421 11.1112 8.10085 10.4807 7.473L7.08679 4.09382C6.69662 3.70534 6.06581 3.70534 5.67564 4.09382L3.11546 6.64292C2.72289 7.0338 2.72289 7.66933 3.11546 8.0602L6.49014 11.4203C7.12221 12.0496 6.67652 13.1289 5.78457 13.1289H1C0.447715 13.1289 0 13.5766 0 14.1289V17.7296C0 18.2818 0.447716 18.7296 1 18.7296H29C29.5523 18.7296 30 18.2818 30 17.7296V14.1289C30 13.5766 29.5523 13.1289 29 13.1289H24.2126C23.3207 13.1289 22.875 12.0496 23.507 11.4203L26.8824 8.05952C27.275 7.66865 27.275 7.03311 26.8824 6.64224L24.3222 4.09314C23.932 3.70466 23.3012 3.70466 22.9111 4.09314L19.5168 7.47273C18.8862 8.10059 17.8112 7.65395 17.8112 6.76409V1.99609Z" fill="#40A9FF"/>
    <path d="M14.2514 10.8864C14.6367 10.2219 15.5963 10.2219 15.9816 10.8864L25.6123 27.4952C25.9989 28.1618 25.5179 28.9968 24.7473 28.9968H5.48574C4.7151 28.9968 4.23408 28.1618 4.62065 27.4952L14.2514 10.8864Z" fill="#096DD9"/>
    <path fill-rule="evenodd" clip-rule="evenodd" d="M20.5214 18.7282L15.9803 10.8968C15.595 10.2323 14.6354 10.2323 14.2501 10.8968L9.70898 18.7282H20.5214Z" fill="#BAE7FF"/>
</svg>
