<svg width="26" height="26" viewBox="0 0 26 26" fill="none" xmlns="http://www.w3.org/2000/svg">
    <path fill-rule="evenodd" clip-rule="evenodd" d="M15.954 15.6963C18.9807 14.5146 21.125 11.5702 21.125 8.125C21.125 3.63769 17.4873 0 13 0C8.51269 0 4.875 3.63769 4.875 8.125C4.875 11.5701 7.01918 14.5144 10.0458 15.6963C10.5315 13.9478 11.5871 12.4366 13 11.3752C14.4128 12.4366 15.4684 13.9479 15.954 15.6963Z" fill="#BAE7FF"/>
    <path fill-rule="evenodd" clip-rule="evenodd" d="M16.25 17.875C16.25 22.3623 12.6123 26 8.125 26C3.63769 26 0 22.3623 0 17.875C0 13.3877 3.63769 9.75 8.125 9.75C12.6123 9.75 16.25 13.3877 16.25 17.875ZM12.9997 11.375C14.4128 12.4364 15.4686 13.9479 15.9542 15.6967C15.0385 16.0543 14.042 16.2505 12.9997 16.2505C11.9574 16.2505 10.9609 16.0543 10.0452 15.6967C10.5308 13.9479 11.5866 12.4364 12.9997 11.375Z" fill="#40A9FF"/>
    <path fill-rule="evenodd" clip-rule="evenodd" d="M17.875 26C22.3623 26 26 22.3623 26 17.875C26 13.3877 22.3623 9.75 17.875 9.75C14.7835 9.75 12.0953 11.4766 10.722 14.0181C11.2828 12.9805 12.0627 12.0788 12.9997 11.375C14.4128 12.4364 15.4686 13.9479 15.9542 15.6967C15.0385 16.0543 14.042 16.2505 12.9997 16.2505C11.9574 16.2505 10.961 16.0543 10.0453 15.6967C9.85285 16.39 9.75 17.1205 9.75 17.875C9.75 22.3623 13.3877 26 17.875 26Z" fill="#0074E0"/>
    <path fill-rule="evenodd" clip-rule="evenodd" d="M15.9501 15.682C18.3154 14.7597 20.1423 12.7612 20.829 10.2883C19.9133 9.93066 18.9168 9.73438 17.8744 9.73438C14.1419 9.73438 10.9972 12.2512 10.0449 15.6804C10.0464 15.681 10.0478 15.6816 10.0492 15.6821C10.5366 13.9395 11.5905 12.4335 12.9997 11.375C14.4089 12.4334 15.4627 13.9395 15.9501 15.682Z" fill="#BAE7FF"/>
</svg>
