<svg width="28" height="28" viewBox="0 0 28 28" fill="none" xmlns="http://www.w3.org/2000/svg">
<path d="M3.45252 5.07262C2.82149 4.44628 1.74807 4.89326 1.74807 5.78236L1.74805 17.956C1.74805 19.4065 2.53327 20.7433 3.80013 21.4497L12.5146 26.3085C13.4238 26.8154 14.5308 26.8148 15.4395 26.3068L24.2015 21.4081C25.4661 20.7011 26.2496 19.3655 26.2496 17.9167V5.78236C26.2496 4.89325 25.1762 4.44628 24.5451 5.07261L22.2466 7.35397C21.8683 7.72947 21.6555 8.24044 21.6555 8.77347V17.0055C21.6555 17.3796 21.4468 17.7224 21.1144 17.894L14.4331 21.3445C14.1458 21.4929 13.8045 21.4932 13.517 21.3454L6.88487 17.9358C6.5516 17.7645 6.34209 17.4212 6.34209 17.0464V8.77346C6.34209 8.24044 6.12932 7.72947 5.75101 7.35397L3.45252 5.07262Z" fill="#0074E0"/>
<path d="M9.4043 11.0794C9.4043 10.3374 10.1841 9.8538 10.8488 10.1837L13.5538 11.5261C13.8339 11.6651 14.1628 11.6651 14.4429 11.5261L17.1478 10.1837C17.8126 9.8538 18.5924 10.3374 18.5924 11.0794V14.9264C18.5924 15.3063 18.3772 15.6533 18.0369 15.8222L14.4429 17.6058C14.1628 17.7448 13.8339 17.7448 13.5538 17.6058L9.95976 15.8222C9.6195 15.6533 9.4043 15.3063 9.4043 14.9264V11.0794Z" fill="#40A9FF"/>
<path d="M9.4043 4.23764C9.4043 3.49557 10.1841 3.012 10.8488 3.34189L13.5538 4.68428C13.8339 4.82327 14.1628 4.82327 14.4429 4.68428L17.1478 3.34189C17.8126 3.012 18.5924 3.49557 18.5924 4.23764V6.56469C18.5924 6.94454 18.3772 7.29159 18.0369 7.46045L14.4429 9.24408C14.1628 9.38307 13.8339 9.38307 13.5538 9.24408L9.95976 7.46045C9.6195 7.29159 9.4043 6.94454 9.4043 6.56469V4.23764Z" fill="#BAE7FF"/>
</svg>