<svg width="28" height="28" viewBox="0 0 28 28" fill="none" xmlns="http://www.w3.org/2000/svg">
<path d="M14 19.6719C14 19.3845 13.8317 19.119 13.5591 18.9764L3.05912 13.4837C2.4758 13.1785 1.75 13.5641 1.75 14.1792V20.0533C1.75 20.343 1.92081 20.6101 2.19672 20.7519L12.6967 26.1471C13.28 26.4468 14 26.0609 14 25.4486L14 19.6719Z" fill="#D1E8FF"/>
<path d="M26.2497 7.94746C26.2497 7.65781 26.0789 7.39072 25.803 7.24895L15.3033 1.85368C14.72 1.55397 14 1.93987 14 2.55219V6.33207C14 6.61644 14.1647 6.87949 14.4327 7.02323L22.317 11.2516C22.585 11.3953 22.7497 11.6583 22.7497 11.9427V20.9555C22.7497 21.573 23.4808 21.9583 24.0641 21.6482L25.8141 20.718C26.0838 20.5746 26.2497 20.3107 26.2497 20.0252L26.2497 7.94746Z" fill="#0074E0"/>
<path d="M20.125 14.2252C20.125 13.933 19.9512 13.664 19.6715 13.5232L9.17153 8.23889C8.58839 7.94541 7.875 8.33164 7.875 8.94084V12.6985C7.875 13.0019 8.06225 13.2793 8.35869 13.415L16.1413 16.9773C16.4377 17.113 16.625 17.3904 16.625 17.6938V23.9129C16.625 24.5083 17.3095 24.8956 17.8913 24.6293L19.6413 23.8283C19.9377 23.6926 20.125 23.4153 20.125 23.1119V14.2252Z" fill="#86C5FF"/>
</svg>