<svg width="28" height="28" viewBox="0 0 28 28" fill="none" xmlns="http://www.w3.org/2000/svg">
<g clip-path="url(#clip0_1109_43642)">
<path d="M27.9029 4.82963C28.2054 4.21875 27.7654 3.5 27.0889 3.5H22.3208L11.9199 24.5H17.0356C17.725 24.5 18.3552 24.1068 18.6636 23.4843L27.9029 4.82963Z" fill="#40A9FF"/>
<path d="M27.9016 4.82963C28.2042 4.21875 27.7642 3.5 27.0876 3.5H22.3196L17.1191 14H23.3597L27.9016 4.82963Z" fill="#BAE7FF"/>
<path d="M20.2406 3.5H14.5625C14.2178 3.5 13.9026 3.69662 13.7485 4.00787L7.23941 17.15L5.93081 14.5079C5.77665 14.1966 5.46152 14 5.11681 14H0.911254C0.234716 14 -0.205303 14.7188 0.0972541 15.3296L4.1361 23.4843C4.44442 24.1068 5.07467 24.5 5.7641 24.5H9.83964L20.2406 3.5Z" fill="#096DD9"/>
</g>
<defs>
<clipPath id="clip0_1109_43642">
<rect width="28" height="28" fill="white"/>
</clipPath>
</defs>
</svg>