<svg width="40" height="40" viewBox="0 0 40 40" fill="none" xmlns="http://www.w3.org/2000/svg">
    <g clip-path="url(#clip0_3232_8232)">
        <path d="M5.83336 10H9.73669C9.83823 9.99997 9.93627 9.96286 10.0124 9.89565C10.0885 9.82844 10.1374 9.73575 10.15 9.635L10.7884 4.53167C10.801 4.43091 10.8499 4.33822 10.926 4.27101C11.0021 4.2038 11.1002 4.1667 11.2017 4.16667H28.7984C28.8999 4.1667 28.9979 4.2038 29.074 4.27101C29.1502 4.33822 29.1991 4.43091 29.2117 4.53167L29.85 9.635C29.8626 9.73575 29.9116 9.82844 29.9877 9.89565C30.0638 9.96286 30.1618 9.99997 30.2634 10H34.1667C34.2903 10 34.4123 9.97256 34.524 9.9196C34.6357 9.86664 34.7341 9.7895 34.8123 9.69378C34.8905 9.59806 34.9464 9.48615 34.976 9.36615C35.0056 9.24616 35.0081 9.12109 34.9834 9L33.5867 2.1C33.4866 1.51893 33.1866 0.991089 32.7387 0.60766C32.2907 0.224232 31.7229 0.0093017 31.1334 0H8.86669C8.27892 0.00854645 7.71252 0.221766 7.26503 0.602944C6.81753 0.984122 6.51694 1.5094 6.41503 2.08833L5.01669 9C4.99198 9.12109 4.9945 9.24616 5.02409 9.36615C5.05367 9.48615 5.10957 9.59806 5.18775 9.69378C5.26592 9.7895 5.3644 9.86664 5.47607 9.9196C5.58773 9.97256 5.70977 10 5.83336 10Z" fill="#8296AA"/>
        <path d="M35.8333 11.6667H4.16663C3.50358 11.6667 2.8677 11.9301 2.39886 12.3989C1.93002 12.8677 1.66663 13.5036 1.66663 14.1667C1.66663 14.8297 1.93002 15.4656 2.39886 15.9344C2.8677 16.4033 3.50358 16.6667 4.16663 16.6667H5.68329L7.69829 37.7633C7.75828 38.3798 8.04706 38.9514 8.50767 39.3654C8.96828 39.7794 9.56731 40.0058 10.1866 40H29.6983C30.304 40.0006 30.8893 39.7812 31.3454 39.3827C31.8016 38.9842 32.0975 38.4336 32.1783 37.8333L34.875 16.6667H35.8333C36.4963 16.6667 37.1322 16.4033 37.6011 15.9344C38.0699 15.4656 38.3333 14.8297 38.3333 14.1667C38.3333 13.5036 38.0699 12.8677 37.6011 12.3989C37.1322 11.9301 36.4963 11.6667 35.8333 11.6667Z" fill="#8296AA"/>
    </g>
    <defs>
        <clipPath id="clip0_3232_8232">
            <rect width="40" height="40" fill="white"/>
        </clipPath>
    </defs>
</svg>

