<svg width="15" height="16" viewBox="0 0 15 16" fill="none" xmlns="http://www.w3.org/2000/svg">
    <path fill-rule="evenodd" clip-rule="evenodd" d="M5.92092 0.813997C6.42139 0.606696 6.95779 0.5 7.49949 0.5C8.04119 0.5 8.57759 0.606696 9.07806 0.813997C9.57853 1.0213 10.0333 1.32514 10.4163 1.70818C10.7993 2.09123 11.1032 2.54596 11.3105 3.04643C11.5178 3.5469 11.6245 4.0833 11.6245 4.625C11.6245 5.1667 11.5178 5.7031 11.3105 6.20357C11.1032 6.70404 10.7993 7.15877 10.4163 7.54182C10.0333 7.92486 9.57853 8.2287 9.07806 8.436C8.57759 8.6433 8.04119 8.75 7.49949 8.75C6.95779 8.75 6.42139 8.6433 5.92092 8.436C5.42045 8.2287 4.96571 7.92486 4.58267 7.54182C4.19963 7.15877 3.89579 6.70404 3.68849 6.20357C3.48119 5.7031 3.37449 5.1667 3.37449 4.625C3.37449 4.0833 3.48119 3.5469 3.68849 3.04643C3.89579 2.54596 4.19963 2.09123 4.58267 1.70818C4.96572 1.32514 5.42045 1.0213 5.92092 0.813997ZM7.49949 2C7.15477 2 6.81342 2.0679 6.49495 2.19982C6.17647 2.33173 5.88709 2.52509 5.64333 2.76884C5.39958 3.0126 5.20622 3.30198 5.07431 3.62046C4.94239 3.93894 4.87449 4.28028 4.87449 4.625C4.87449 4.96972 4.94239 5.31106 5.07431 5.62954C5.20622 5.94802 5.39958 6.2374 5.64333 6.48115C5.88709 6.72491 6.17647 6.91827 6.49495 7.05018C6.81342 7.1821 7.15477 7.25 7.49949 7.25C7.84421 7.25 8.18555 7.1821 8.50403 7.05018C8.82251 6.91827 9.11189 6.72491 9.35564 6.48115C9.5994 6.2374 9.79275 5.94802 9.92467 5.62954C10.0566 5.31106 10.1245 4.96972 10.1245 4.625C10.1245 4.28028 10.0566 3.93894 9.92467 3.62046C9.79275 3.30198 9.5994 3.0126 9.35564 2.76884C9.11189 2.52509 8.82251 2.33173 8.50403 2.19982C8.18555 2.0679 7.84421 2 7.49949 2Z" fill="#8296AA"/>
    <path fill-rule="evenodd" clip-rule="evenodd" d="M3.16658 10.8725C4.43348 9.97577 5.94737 9.49422 7.49949 9.49422C9.05161 9.49422 10.5655 9.97577 11.8324 10.8725C13.0993 11.7692 14.0568 13.0368 14.5728 14.5006C14.6537 14.7302 14.6183 14.9847 14.4777 15.1833C14.3371 15.3819 14.1088 15.5 13.8655 15.5H1.13349C0.890133 15.5 0.661905 15.3819 0.521313 15.1833C0.380721 14.9847 0.345245 14.7302 0.426156 14.5006C0.942201 13.0368 1.89969 11.7692 3.16658 10.8725ZM7.49949 10.9942C6.25779 10.9942 5.04668 11.3795 4.03316 12.0968C3.32102 12.6009 2.73109 13.2514 2.3 14H12.699C12.2679 13.2514 11.678 12.6009 10.9658 12.0968C9.9523 11.3795 8.74118 10.9942 7.49949 10.9942Z" fill="#8296AA"/>
</svg>
