<svg width="36" height="36" viewBox="0 0 36 36" fill="none" xmlns="http://www.w3.org/2000/svg">
    <circle cx="18" cy="18" r="17.5" fill="#F2994A" stroke="#3B4147"/>
    <path fill-rule="evenodd" clip-rule="evenodd" d="M22.9643 9C25.1518 9.22824 26.8798 11.0278 27 13.2486V22.7428C26.8781 24.9942 25.1039 26.8127 22.8736 27H12.6228C10.664 26.5068 9 24.6079 9 22.4952V13.4962C9 11.3834 10.6355 9.49319 12.5943 9H22.9643ZM10.7116 13.4962V22.4953C10.7116 24.0427 11.9685 25.3016 13.5135 25.3016H17.1476V20.9756H16.1567C15.0221 20.9307 15.0212 19.3066 16.1567 19.2613H17.1476V17.547H16.1567C15.0221 17.5021 15.0212 15.878 16.1567 15.8327H17.1476V14.1184H16.1567C15.0221 14.0735 15.0212 12.4494 16.1567 12.4041H17.1476V10.6898H13.5135C11.9685 10.6898 10.7116 11.9487 10.7116 13.4962ZM19.85 22.6898H18.8591V25.3016H22.4932C24.0382 25.3016 25.2951 24.0426 25.2951 22.4952V13.4962C25.2951 11.9487 24.0382 10.6898 22.4932 10.6898H18.8591V14.1184H19.85C20.9845 14.1633 20.9853 15.7874 19.85 15.8327H18.8591V17.547H19.85C20.9845 17.5919 20.9853 19.216 19.85 19.2613H18.8591V20.9756H19.85C20.9845 21.0204 20.9853 22.6445 19.85 22.6898Z" fill="white"/>
</svg>

