<svg width="270" height="88" viewBox="0 0 270 88" fill="none" xmlns="http://www.w3.org/2000/svg">
<mask id="mask0_13771_140626" style="mask-type:alpha" maskUnits="userSpaceOnUse" x="9" y="20" width="55" height="49">
<path d="M32.1006 22.4492C33.988 19.1836 38.7065 19.1836 40.5939 22.4492L63.0303 61.2697C64.9177 64.5353 62.5584 68.6174 58.7836 68.6174H13.9109C10.1361 68.6174 7.77688 64.5353 9.66427 61.2697L32.1006 22.4492Z" fill="#BAE7FF"/>
</mask>
<g mask="url(#mask0_13771_140626)">
<path d="M32.1006 22.4492C33.988 19.1836 38.7065 19.1836 40.5939 22.4492L63.0303 61.2697C64.9177 64.5353 62.5584 68.6174 58.7836 68.6174H13.9109C10.1361 68.6174 7.77688 64.5353 9.66427 61.2697L32.1006 22.4492Z" fill="#BAE7FF"/>
<path d="M48.7586 25.8972C49.6484 25.0084 51.1676 25.4151 51.4933 26.6292L68.1941 88.8927C68.5197 90.1068 67.4076 91.2178 66.1923 90.8924L3.86384 74.209C2.64846 73.8837 2.2414 72.366 3.13112 71.4773L48.7586 25.8972Z" fill="#69C0FF"/>
<path d="M58.3664 38.0083C59.4561 37.3798 60.8182 38.1654 60.8182 39.4223V103.882C60.8182 105.139 59.4561 105.925 58.3664 105.296L2.48425 73.0664C1.39457 72.4379 1.39457 70.8668 2.48426 70.2383L58.3664 38.0083Z" fill="#40A9FF"/>
<path d="M69.281 51.0866C70.4965 50.7614 71.6086 51.8724 71.283 53.0865L53.6265 118.913C53.3009 120.127 51.7816 120.533 50.8919 119.645L2.65357 71.4565C1.76385 70.5677 2.17093 69.05 3.38632 68.7248L69.281 51.0866Z" fill="#096DD9"/>
</g>
<path d="M80.9476 31.3438L88.2663 52.7919H88.5616L95.8802 31.3438H100.169L90.7058 57.6782H86.122L76.6592 31.3438H80.9476Z" fill="white"/>
<path d="M116.4 31.3438H120.907L127.776 43.3151H128.058L134.928 31.3438H139.434L129.894 47.3398V57.6782H125.94V47.3398L116.4 31.3438Z" fill="white"/>
<path d="M157.643 31.3438H162.458L170.829 51.8146H171.138L179.509 31.3438H184.324V57.6782H180.549V38.6217H180.305L172.55 57.6396H169.417L161.662 38.6089H161.418V57.6782H157.643V31.3438Z" fill="white"/>
<path d="M204.555 57.6782V31.3438H221.041V34.7641H208.522V42.7879H220.181V46.1954H208.522V54.2578H221.195V57.6782H204.555Z" fill="white"/>
<path d="M243.564 31.3438L249.855 41.6435H250.061L256.352 31.3438H260.949L252.757 44.511L261 57.6782H256.378L250.061 47.5199H249.855L243.538 57.6782H238.916L247.3 44.511L238.967 31.3438H243.564Z" fill="white"/>
</svg>
