<svg width="30" height="28" viewBox="0 0 30 28" fill="none" xmlns="http://www.w3.org/2000/svg">
    <mask id="mask0_6636_324076" style="mask-type:alpha" maskUnits="userSpaceOnUse" x="0" y="0" width="30" height="28">
        <path d="M12.6707 1.63539C13.7059 -0.211797 16.2941 -0.211797 17.3293 1.63539L29.6357 23.5938C30.6709 25.441 29.3768 27.75 27.3064 27.75H2.69363C0.623161 27.75 -0.670882 25.441 0.364354 23.5938L12.6707 1.63539Z" fill="#BAE7FF"/>
    </mask>
    <g mask="url(#mask0_6636_324076)">
        <path d="M12.6707 1.63539C13.7059 -0.211797 16.2941 -0.211797 17.3293 1.63539L29.6357 23.5938C30.6709 25.441 29.3768 27.75 27.3064 27.75H2.69363C0.623161 27.75 -0.670882 25.441 0.364354 23.5938L12.6707 1.63539Z" fill="#BAE7FF"/>
        <path d="M21.8055 3.58749C22.2936 3.08475 23.1268 3.31477 23.3055 4.00153L32.4659 39.2203C32.6445 39.9071 32.0345 40.5355 31.3679 40.3515L-2.81933 30.9146C-3.48597 30.7307 -3.70925 29.8722 -3.22123 29.3695L21.8055 3.58749Z" fill="#69C0FF"/>
        <path d="M27.0762 10.4376C27.6739 10.0821 28.421 10.5265 28.421 11.2375V47.6986C28.421 48.4096 27.6739 48.854 27.0762 48.4986L-3.57517 30.2679C-4.17286 29.9124 -4.17286 29.0237 -3.57516 28.6683L27.0762 10.4376Z" fill="#1890FF"/>
        <path d="M33.0623 17.8342C33.7289 17.6502 34.3389 18.2786 34.1604 18.9654L24.4757 56.1994C24.2972 56.8861 23.4638 57.1161 22.9758 56.6134L-3.48295 29.3562C-3.97097 28.8535 -3.74768 27.995 -3.08104 27.811L33.0623 17.8342Z" fill="#096DD9"/>
    </g>
</svg>


